<?xml version="1.0" encoding="UTF-8"?>
<svg width="40px" height="40px" viewBox="0 0 40 40" version="1.1" xmlns="http://www.w3.org/2000/svg" xmlns:xlink="http://www.w3.org/1999/xlink">
    <!-- Generator: Sketch 60 (88103) - https://sketch.com -->
    <title>iconspace_jz</title>
    <desc>Created with Sketch.</desc>
    <g id="iconspace_jz" stroke="none" stroke-width="1" fill="none" fill-rule="evenodd">
        <g id="iconspace_Love">
            <polygon id="Shape" points="0 0 40 0 40 40 0 40"></polygon>
            <path d="M20,30.2493463 L31.4803799,19.2999987 C33.9509845,16.7911682 33.9509845,12.7131064 31.4803799,10.2042759 C29.0237988,7.70968582 25.0516494,7.70968582 22.5950683,10.2042759 L20,12.8394958 L17.4049317,10.2042759 C14.9483506,7.70968582 10.9762012,7.70968582 8.51962008,10.2042759 C6.04901553,12.7131064 6.04901553,16.7911682 8.51962008,19.2999987 L20,30.2493463 Z M20,8.08884208 L20.2200214,7.86541648 C23.9823646,4.04486117 30.0930836,4.04486117 33.8554268,7.86541648 C37.6037466,11.6717314 37.6037466,17.8325432 33.8554268,21.6388581 L20,35 L6.14457316,21.6388581 C2.39625339,17.8325432 2.39625339,11.6717314 6.14457316,7.86541648 C9.90691637,4.04486117 16.0176354,4.04486117 19.7799786,7.86541648 L20,8.08884208 Z" id="Shape" fill="#344356" fill-rule="nonzero"></path>
        </g>
    </g>
</svg>