<?xml version="1.0" encoding="UTF-8"?>
<svg width="40px" height="40px" viewBox="0 0 40 40" version="1.1" xmlns="http://www.w3.org/2000/svg" xmlns:xlink="http://www.w3.org/1999/xlink">
    <!-- Generator: Sketch 60 (88103) - https://sketch.com -->
    <title>QRcode</title>
    <desc>Created with Sketch.</desc>
    <g id="QRcode" stroke="none" stroke-width="1" fill="none" fill-rule="evenodd">
        <g id="形状结合-2" transform="translate(1.000000, 1.000000)" fill="#C7C7CC" fill-rule="nonzero">
            <path d="M15.5454545,20.7272727 C16.4994009,20.7272727 17.2727273,21.5005991 17.2727273,22.4545455 L17.2727273,36.2727273 C17.2727273,37.2266737 16.4994009,38 15.5454545,38 L1.72727273,38 C0.773326341,38 0,37.2266737 0,36.2727273 L0,22.4545455 C0,21.5005991 0.773326341,20.7272727 1.72727273,20.7272727 L15.5454545,20.7272727 Z M36.2727273,27.6363636 C37.2266737,27.6363636 38,28.40969 38,29.3636364 L38,36.2727273 C38,37.2266737 37.2266737,38 36.2727273,38 L27.6363636,38 C26.6824173,38 25.9090909,37.2266737 25.9090909,36.2727273 C25.9090909,35.3187809 26.6824173,34.5454545 27.6363636,34.5454545 L34.5454545,34.5454545 L34.5454545,29.3636364 C34.5454545,28.40969 35.3187809,27.6363636 36.2727273,27.6363636 Z M22.4545455,31.0909091 C23.4084918,31.0909091 24.1818182,31.8642354 24.1818182,32.8181818 L24.1818182,36.2727273 C24.1818182,37.2266737 23.4084918,38 22.4545455,38 C21.5005991,38 20.7272727,37.2266737 20.7272727,36.2727273 L20.7272727,32.8181818 C20.7272727,31.8642354 21.5005991,31.0909091 22.4545455,31.0909091 Z M13.8181818,24.1818182 L3.45454545,24.1818182 L3.45454545,34.5454545 L13.8181818,34.5454545 L13.8181818,24.1818182 Z M31.0909091,27.6363636 C32.0448555,27.6363636 32.8181818,28.40969 32.8181818,29.3636364 C32.8181818,30.3175827 32.0448555,31.0909091 31.0909091,31.0909091 L27.6363636,31.0909091 C26.6824173,31.0909091 25.9090909,30.3175827 25.9090909,29.3636364 C25.9090909,28.40969 26.6824173,27.6363636 27.6363636,27.6363636 L31.0909091,27.6363636 Z M34.5454545,20.7272727 C35.4994009,20.7272727 36.2727273,21.5005991 36.2727273,22.4545455 C36.2727273,23.4084918 35.4994009,24.1818182 34.5454545,24.1818182 L22.4545455,24.1818182 C21.5005991,24.1818182 20.7272727,23.4084918 20.7272727,22.4545455 C20.7272727,21.5005991 21.5005991,20.7272727 22.4545455,20.7272727 L34.5454545,20.7272727 Z M15.5454545,0 C16.4994009,0 17.2727273,0.773326341 17.2727273,1.72727273 L17.2727273,15.5454545 C17.2727273,16.4994009 16.4994009,17.2727273 15.5454545,17.2727273 L1.72727273,17.2727273 C0.773326341,17.2727273 0,16.4994009 0,15.5454545 L0,1.72727273 C0,0.773326341 0.773326341,0 1.72727273,0 L15.5454545,0 Z M36.2727273,0 C37.2266737,0 38,0.773326341 38,1.72727273 L38,15.5454545 C38,16.4994009 37.2266737,17.2727273 36.2727273,17.2727273 L22.4545455,17.2727273 C21.5005991,17.2727273 20.7272727,16.4994009 20.7272727,15.5454545 L20.7272727,1.72727273 C20.7272727,0.773326341 21.5005991,0 22.4545455,0 L36.2727273,0 Z M13.8181818,3.45454545 L3.45454545,3.45454545 L3.45454545,13.8181818 L13.8181818,13.8181818 L13.8181818,3.45454545 Z M34.5454545,3.45454545 L24.1818182,3.45454545 L24.1818182,13.8181818 L34.5454545,13.8181818 L34.5454545,3.45454545 Z" id="形状结合"></path>
        </g>
    </g>
</svg>