<?xml version="1.0" encoding="UTF-8"?>
<svg width="20px" height="20px" viewBox="0 0 20 20" version="1.1" xmlns="http://www.w3.org/2000/svg" xmlns:xlink="http://www.w3.org/1999/xlink">
    <!-- Generator: Sketch 53.2 (72643) - https://sketchapp.com -->
    <title>me_shiming</title>
    <desc>Created with Sketch.</desc>
    <g id="me_shiming" stroke="none" stroke-width="1" fill="none" fill-rule="evenodd">
        <g>
            <rect id="矩形" x="0" y="0" width="20" height="20"></rect>
            <g id="编组" transform="translate(3.000000, 2.000000)" fill-rule="nonzero">
                <path d="M7,-0.75 C4.37664744,-0.75 2.25,1.37664744 2.25,4 C2.25,6.62335256 4.37664744,8.75 7,8.75 C9.62335256,8.75 11.75,6.62335256 11.75,4 C11.75,1.37664744 9.62335256,-0.75 7,-0.75 Z M7,0.75 C8.79492544,0.75 10.25,2.20507456 10.25,4 C10.25,5.79492544 8.79492544,7.25 7,7.25 C5.20507456,7.25 3.75,5.79492544 3.75,4 C3.75,2.20507456 5.20507456,0.75 7,0.75 Z" id="椭圆形" fill="#344356"></path>
                <path d="M7,7.25 C9.09734289,7.25 11.0636307,8.08805825 12.5095228,9.54952586 C12.8008427,9.84398396 12.7982987,10.3188509 12.5038406,10.6101708 C12.2093825,10.9014907 11.7345156,10.8989468 11.4431957,10.6044887 C10.276252,9.42497436 8.69259853,8.75 7,8.75 C3.54822031,8.75 0.75,11.5482203 0.75,15 C0.75,15.4142136 0.414213562,15.75 -2.49800181e-14,15.75 C-0.414213562,15.75 -0.75,15.4142136 -0.75,15 C-0.75,10.7197932 2.71979319,7.25 7,7.25 Z" id="路径" fill="#344356"></path>
                <polygon id="路径-2" fill="#4293F4" points="14.3128108 9.78200893 15.4849616 10.7179911 11.004885 16.3284884 8.40737135 14.0747645 9.39040102 12.9417805 10.808 14.171"></polygon>
            </g>
        </g>
    </g>
</svg>