<?xml version="1.0" encoding="UTF-8"?>
<svg width="280px" height="190px" viewBox="0 0 280 190" version="1.1" xmlns="http://www.w3.org/2000/svg" xmlns:xlink="http://www.w3.org/1999/xlink">
    <!-- Generator: Sketch 52.3 (67297) - http://www.bohemiancoding.com/sketch -->
    <title>实名认证_未登录</title>
    <desc>Created with Sketch.</desc>
    <g id="FA1113" stroke="none" stroke-width="1" fill="none" fill-rule="evenodd">
        <g id="1.1个人中心_未登录" transform="translate(-235.000000, -510.000000)" fill-rule="nonzero">
            <g id="实名认证_未登录" transform="translate(235.000000, 510.000000)">
                <rect id="Rectangle-4" fill="#FFFFFF" x="0" y="0" width="280" height="190"></rect>
                <path d="M24,16 L24,44 C24,45.6568542 22.6568542,47 21,47 C19.3431458,47 18,45.6568542 18,44 L18,15 C18,12.2385763 20.2385763,10 23,10 L50,10 C51.6568542,10 53,11.3431458 53,13 C53,14.6568542 51.6568542,16 50,16 L24,16 Z M24,174 L50,174 C51.6568542,174 53,175.343146 53,177 C53,178.656854 51.6568542,180 50,180 L23,180 C20.2385763,180 18,177.761424 18,175 L18,146 C18,144.343146 19.3431458,143 21,143 C22.6568542,143 24,144.343146 24,146 L24,174 Z M257,16 L231,16 C229.343146,16 228,14.6568542 228,13 C228,11.3431458 229.343146,10 231,10 L258,10 C260.761424,10 263,12.2385763 263,15 L263,44 C263,45.6568542 261.656854,47 260,47 C258.343146,47 257,45.6568542 257,44 L257,16 Z M257,174 L257,146 C257,144.343146 258.343146,143 260,143 C261.656854,143 263,144.343146 263,146 L263,175 C263,177.761424 260.761424,180 258,180 L231,180 C229.343146,180 228,178.656854 228,177 C228,175.343146 229.343146,174 231,174 L257,174 Z M176,69 C174.343146,69 173,67.6568542 173,66 C173,64.3431458 174.343146,63 176,63 L226,63 C227.656854,63 229,64.3431458 229,66 C229,67.6568542 227.656854,69 226,69 L176,69 Z M176,98.25 C174.343146,98.25 173,96.9068542 173,95.25 C173,93.5931458 174.343146,92.25 176,92.25 L226,92.25 C227.656854,92.25 229,93.5931458 229,95.25 C229,96.9068542 227.656854,98.25 226,98.25 L176,98.25 Z M176,128.25 C174.343146,128.25 173,126.906854 173,125.25 C173,123.593146 174.343146,122.25 176,122.25 L226,122.25 C227.656854,122.25 229,123.593146 229,125.25 C229,126.906854 227.656854,128.25 226,128.25 L176,128.25 Z M84.0388312,100.685756 C73.9309012,95.5785512 67,85.0986749 67,73 C67,55.8791728 80.8791728,42 98,42 C115.120827,42 129,55.8791728 129,73 C129,84.9381207 122.25183,95.3001219 112.36189,100.479603 C129.790862,106.332561 142,122.808294 142,141.786086 C142,143.561082 140.563202,145 138.790821,145 C137.01844,145 135.581642,143.561082 135.581642,141.786086 C135.581642,124.156016 123.217964,109.055841 106.215234,105.453978 C106.017182,105.412023 90.9166791,105.426016 90.7800867,105.45497 C73.7796016,109.058666 61.4183579,124.157775 61.4183579,141.786086 C61.4183579,143.561082 59.9815595,145 58.2091789,145 C56.4367983,145 55,143.561082 55,141.786086 C55,123.026695 66.9297757,106.711925 84.0388312,100.685756 Z M98,97.6410256 C111.608863,97.6410256 122.641026,86.6088627 122.641026,73 C122.641026,59.3911373 111.608863,48.3589744 98,48.3589744 C84.3911373,48.3589744 73.3589744,59.3911373 73.3589744,73 C73.3589744,86.6088627 84.3911373,97.6410256 98,97.6410256 Z" id="实名认证-copy" fill="#BFBFBF"></path>
            </g>
        </g>
    </g>
</svg>