<?xml version="1.0" encoding="UTF-8"?>
<svg width="40px" height="40px" viewBox="0 0 40 40" version="1.1" xmlns="http://www.w3.org/2000/svg" xmlns:xlink="http://www.w3.org/1999/xlink">
    <!-- Generator: Sketch 59.1 (86144) - https://sketch.com -->
    <title>iconspace_sb</title>
    <desc>Created with Sketch.</desc>
    <g id="iconspace_sb" stroke="none" stroke-width="1" fill="none" fill-rule="evenodd">
        <g id="iconspace_Temperature">
            <polygon id="Shape" points="0 0 40 0 40 40 0 40"></polygon>
            <path d="M16.6666667,18.9658077 L15.8345433,19.4471651 C13.2749746,20.9277956 11.6666667,23.6562321 11.6666667,26.6666667 C11.6666667,31.2690396 15.3976271,35 20,35 C24.6023729,35 28.3333333,31.2690396 28.3333333,26.6666667 C28.3333333,23.6562321 26.7250254,20.9277956 24.1654567,19.4471651 L23.3333333,18.9658077 L23.3333333,8.33333333 C23.3333333,6.49238417 21.8409492,5 20,5 C18.1590508,5 16.6666667,6.49238417 16.6666667,8.33333333 L16.6666667,18.9658077 Z M13.3333333,17.0909902 L13.3333333,8.33333333 C13.3333333,4.651435 16.3181017,1.66666667 20,1.66666667 C23.6818983,1.66666667 26.6666667,4.651435 26.6666667,8.33333333 L26.6666667,17.0909902 C29.7594957,19.2455845 31.6666667,22.7907331 31.6666667,26.6666667 C31.6666667,33.1099887 26.4433221,38.3333333 20,38.3333333 C13.5566779,38.3333333 8.33333333,33.1099887 8.33333333,26.6666667 C8.33333333,22.7907331 10.2405043,19.2455845 13.3333333,17.0909902 Z" id="Shape" fill="#344356" fill-rule="nonzero"></path>
            <path d="M21.6666667,23.779274 C22.6630023,24.355623 23.3333333,25.4328627 23.3333333,26.6666667 C23.3333333,28.5076158 21.8409492,30 20,30 C18.1590508,30 16.6666667,28.5076158 16.6666667,26.6666667 C16.6666667,25.4328627 17.3369977,24.355623 18.3333333,23.779274 L18.3333333,15 L21.6666667,15 L21.6666667,23.779274 L21.6666667,23.779274 Z" id="Shape" fill="#4293F4" fill-rule="nonzero"></path>
        </g>
    </g>
</svg>