<?xml version="1.0" encoding="UTF-8"?>
<svg width="54px" height="55px" viewBox="0 0 54 55" version="1.1" xmlns="http://www.w3.org/2000/svg" xmlns:xlink="http://www.w3.org/1999/xlink">
    <title>ic申领场所码</title>
    <g id="页面-2" stroke="none" stroke-width="1" fill="none" fill-rule="evenodd">
        <g id="A0-自主申报-功能入口备份-19" transform="translate(-35.000000, -1118.000000)">
            <g id="3常用专区" transform="translate(1.000000, 569.000000)">
                <g id="page3-疫情上报" transform="translate(15.500000, 66.000000)">
                    <g id="card1-申报" transform="translate(0.500000, 0.000000)">
                        <g id="编组-17备份-5" transform="translate(2.000000, 463.250000)">
                            <g id="ic申领场所码" transform="translate(16.000000, 20.000000)">
                                <rect id="矩形" fill="#E5EFFD" x="0" y="0" width="54" height="54" rx="27"></rect>
                                <g id="编组" transform="translate(11.000000, 12.000000)" fill="#4293F4" fill-rule="nonzero">
                                    <path d="M15.9351283,-1.77635684e-15 L15.9174243,13.024286 C15.9174243,18.5184456 15.9233256,24.0126052 15.9351283,29.5067648 L0.149009162,29.5067648 C0.137206456,29.2869394 0.113601045,29.0641633 0.113601045,28.8472886 L0.112,18.966 L0.112125706,28.8472886 C0.112125706,29.067114 0.135731118,29.2898901 0.147533824,29.5067648 C0.0988476621,29.4329979 1.35461087e-13,29.359231 1.35461087e-13,29.2869394 C0.000983558827,19.5979014 0.00147533824,9.90886341 0.00147533824,0.219825398 C0.00147533824,0.147533824 0.0988476621,0.073766912 0.149009162,-3.55271368e-15 L15.9351283,-1.77635684e-15 Z M31.2255339,13.6276993 C31.4419378,13.6428756 31.6569331,13.6739414 31.8687813,13.7206456 L31.8687813,29.5067648 L28.0329019,29.5067648 L28.0329019,23.0315053 L21.9840151,23.0315053 L21.9840151,29.5067648 L18.2956695,29.5067648 C18.2838668,27.2494973 18.2646874,24.9937051 18.2602614,22.7364376 L18.2602614,13.6793362 C18.5553291,13.6557308 18.7412217,13.6276993 18.9315403,13.6276993 L31.2255339,13.6276993 Z M9.72986038,20.0023162 L9.72974707,20.2769335 C9.73046534,20.4250216 9.73200165,20.5896864 9.73280638,20.7727624 C9.73539819,21.0791942 9.73230526,21.3402558 9.73074729,21.5626317 L9.73007656,21.8113415 C9.73502747,22.9663231 9.8992006,22.8248782 11.7820512,22.8308593 L11.7805759,22.8293839 C12.1980966,22.8293839 12.6156173,22.8175812 13.0316627,22.8293839 C13.5819638,22.8500387 13.8490001,22.6243119 13.8327713,22.04893 C13.8121166,21.2640501 13.8194933,20.4791701 13.8327713,19.6883888 C13.8327713,19.2000519 13.626224,18.9610471 13.1260843,18.9728498 C12.5861105,18.9846525 12.0461367,18.9728498 11.5032123,18.9728498 C9.91091994,18.9728498 9.73976444,18.8188402 9.72986038,20.0023162 Z M2.17464857,20.836202 C2.17464857,22.6829267 1.96855491,22.8280843 3.25533169,22.8318061 L3.52348295,22.8311793 C3.61938469,22.830661 3.72195648,22.8299729 3.83165456,22.829534 L4.18258391,22.8293839 L4.18258391,22.8293839 L4.18258391,22.8279086 L5.51038833,22.8279086 C6.03265807,22.8279086 6.26576151,22.5889038 6.24805745,22.0607327 C6.22887805,21.3496197 6.24805745,20.6385067 6.24805745,19.9259183 C6.24805745,19.0407153 6.18461791,18.9890785 5.26695752,18.9817018 L4.01587069,18.9817018 C1.95039715,18.9949799 2.16874721,18.7618764 2.17464857,20.836202 Z M11.2706308,11.35393 L10.8362451,11.3533806 C9.63021821,11.3605718 9.73119692,11.5021393 9.73870773,13.2146046 L9.73849813,13.5653124 C9.73206057,15.0442925 9.67721147,15.212403 10.6173467,15.2196726 L10.8430681,15.2191079 C11.0860159,15.2168304 11.3819155,15.210817 11.7422171,15.2136879 C12.2084239,15.2136879 12.6761062,15.2018852 13.1423131,15.2136879 C13.6085199,15.2254906 13.8283453,15.0159926 13.8283453,14.5586378 L13.8283453,12.0505628 C13.8283453,11.5445217 13.5627844,11.3497771 13.0906762,11.3542031 L12.6078581,11.3561702 L12.6078581,11.3561702 L11.615338,11.3542031 L11.615338,11.3542031 C11.4926614,11.3545608 11.3779291,11.3542952 11.2706308,11.35393 Z M5.54727179,11.3468264 L2.89166295,11.3468264 C2.41365336,11.3468264 2.15399383,11.5592751 2.1643212,12.0579394 C2.17120611,12.8683919 2.17120611,13.6788444 2.1643212,14.4892969 C2.1643212,14.9717325 2.36054119,15.226966 2.86953288,15.2018852 C3.31065901,15.1959839 3.75326048,15.2136879 4.19586196,15.2136879 L5.03155911,15.2051638 C5.17073268,15.2051638 5.30974233,15.2072948 5.44842412,15.2136879 C6.00905266,15.2461454 6.26428617,15.0189433 6.24953279,14.4450367 C6.22887805,13.6601568 6.23477941,12.8738015 6.24953279,12.0844955 C6.25690948,11.5932079 6.03560874,11.3468264 5.54727179,11.3468264 Z M18.5317236,9.13234371 C22.9774095,9.13234371 27.4230954,9.13726151 31.8687813,9.14709709 L31.8687813,11.3601045 L18.3251763,11.3601045 L18.3251763,9.21496265 C18.3887317,9.17569007 18.4586162,9.14773629 18.5317236,9.13234371 Z M2.16359443,4.57288089 L2.16382277,4.80182546 C2.16607968,5.00895351 2.17241321,5.25806078 2.17464857,5.55759915 C2.18418152,7.69161918 1.89201217,7.64584004 3.80110926,7.63777369 L4.32569172,7.63782607 L4.32569172,7.63782607 C6.51066766,7.63782607 6.24363144,7.7853599 6.24363144,5.77447387 C6.23477941,3.49507629 6.52984705,3.81522469 4.2401221,3.78719326 L3.60874754,3.78757974 C2.35505661,3.78317848 2.17469364,3.73337538 2.16359443,4.57288089 Z M9.73723239,5.55759915 L9.73704999,5.89947841 C9.72656302,7.77602089 9.59513338,7.63289975 11.6506187,7.62350062 L11.8322127,7.62307269 C14.1012829,7.62307269 13.8253947,7.78831057 13.8253947,5.75972049 C13.8253947,5.39080618 13.8323392,5.0904062 13.8343063,4.84588131 L13.8341726,4.61951334 C13.8212391,3.61089735 13.5991894,3.80916384 11.8218853,3.78719326 L11.5253423,3.78719326 C9.61625465,3.79604529 9.72690502,3.57474456 9.73723239,5.55759915 Z" id="形状结合"></path>
                                </g>
                            </g>
                        </g>
                    </g>
                </g>
            </g>
        </g>
    </g>
</svg>