<?xml version="1.0" encoding="UTF-8"?>
<svg width="44px" height="44px" viewBox="0 0 44 44" version="1.1" xmlns="http://www.w3.org/2000/svg" xmlns:xlink="http://www.w3.org/1999/xlink">
    <!-- Generator: Sketch 56.2 (81672) - https://sketch.com -->
    <title>ic/kepu</title>
    <desc>Created with Sketch.</desc>
    <g id="草稿" stroke="none" stroke-width="1" fill="none" fill-rule="evenodd">
        <g id="A0-自主申报-功能入口备份-25" transform="translate(-32.000000, -1402.000000)">
            <g id="编组-50" transform="translate(0.000000, 1057.000000)">
                <g id="编组-21">
                    <g id="编组-37" transform="translate(3.000000, 70.000000)">
                        <g id="编组-36备份-3" transform="translate(17.000000, 255.000000)">
                            <g id="ic/kepu" transform="translate(12.000000, 20.000000)">
                                <rect id="矩形" fill="#E5EFFD" x="0" y="0" width="44" height="44" rx="22"></rect>
                                <g id="编组-43" transform="translate(11.500000, 9.187500)">
                                    <rect id="矩形" fill="#83B7F8" opacity="0.868001302" x="0" y="1" width="21" height="23.625" rx="4"></rect>
                                    <path d="M4,1 L4,1 L4,24.625 C1.790861,24.625 2.705415e-16,22.834139 0,20.625 L0,5 C-2.705415e-16,2.790861 1.790861,1 4,1 Z" id="矩形" fill="#4896F4" fill-rule="nonzero"></path>
                                    <path d="M12.6360411,0.871851444 L17.4457335,0.871851444 L17.4457335,11.7357544 C17.4457335,12.0118968 17.2218759,12.2357544 16.9457335,12.2357544 C16.8448707,12.2357544 16.746366,12.2052498 16.6631558,12.1482466 L15.3234651,11.2304917 C15.153146,11.1138146 14.9286286,11.1138146 14.7583096,11.2304917 L13.4186189,12.1482466 C13.1908057,12.30431 12.8796123,12.2461453 12.7235489,12.0183322 C12.6665458,11.9351219 12.6360411,11.8366172 12.6360411,11.7357544 L12.6360411,0.871851444 Z" id="矩形" fill="#FFFFFF" opacity="0.930000007"></path>
                                </g>
                            </g>
                        </g>
                    </g>
                </g>
            </g>
        </g>
    </g>
</svg>