<?xml version="1.0" encoding="UTF-8"?>
<svg width="50px" height="50px" viewBox="0 0 50 50" version="1.1" xmlns="http://www.w3.org/2000/svg" xmlns:xlink="http://www.w3.org/1999/xlink">
    <title>编组 28</title>
    <g id="页面-1" stroke="none" stroke-width="1" fill="none" fill-rule="evenodd">
        <g id="A01首页" transform="translate(-32.000000, -569.000000)">
            <g id="编组-36备份" transform="translate(20.000000, 544.000000)">
                <g id="编组-28" transform="translate(12.000000, 25.000000)">
                    <rect id="矩形" fill="#E5EFFD" x="0" y="0" width="50" height="50" rx="25"></rect>
                    <g id="编组" transform="translate(11.000000, 15.000000)" fill="#3C93F7" fill-rule="nonzero">
                        <path d="M0.000220691282,17.6361111 C-0.00993722762,18.5179737 0.330925392,19.3678325 0.948040927,19.9986973 C1.56515646,20.6295621 2.40796471,20.9897461 3.29102678,21 L24.7089732,21 C25.5920353,20.9897461 26.4348435,20.6295621 27.0519591,19.9986973 C27.6690746,19.3678325 28.0099372,18.5179737 27.9997793,17.6361111 L27.9997793,6.55277778 L0.000220691282,6.55277778 L0.000220691282,17.6361111 Z M3.88168734,16.9277778 C3.86131962,15.3727908 5.02181886,14.0543039 6.56866607,13.875 C5.75254996,13.4382831 5.24911418,12.582853 5.26411843,11.6583333 C5.26411843,10.3481912 6.32764137,9.28611111 7.6395634,9.28611111 C8.95148543,9.28611111 10.0150084,10.3481912 10.0150084,11.6583333 C10.0189046,12.5801154 9.50838344,13.4273305 8.69098986,13.8555556 C10.3041287,13.9490805 11.5573014,15.2948421 11.5337355,16.9083333 L11.5337355,17.0833333 C11.5337355,18.0555556 10.1707752,18.0555556 8.57416469,18.0555556 L6.8996707,18.0555556 C6.21603938,18.080343 5.53158422,18.0412843 4.85523036,17.9388889 C4.23216283,17.8027778 3.94009992,17.5305556 3.94009992,17.0638889 L3.88168734,16.9277778 Z M24.7763108,9.64166667 L23.6859426,11.8 L22.0698612,11.8 L23.1991711,9.64166667 L24.7763108,9.64166667 Z M20.4927215,9.64166667 L22.0698612,9.64166667 L20.979493,11.8 L19.3634116,11.8 L20.4927215,9.64166667 Z M24.7479149,0 L3.3299685,0 C2.44354174,0 1.59370187,0.352964264 0.968733546,0.980734522 C0.343765227,1.60850478 -0.00473240811,2.45923542 0.000394361209,3.34444444 L0.000394361209,4.60833333 L27.9996123,4.60833333 L27.9996123,3.34444444 C28.0106674,1.53049605 26.5638654,0.0423983524 24.7479149,0 L24.7479149,0 Z" id="形状"></path>
                    </g>
                </g>
            </g>
        </g>
    </g>
</svg>