<?xml version="1.0" encoding="UTF-8"?>
<svg width="44px" height="44px" viewBox="0 0 44 44" version="1.1" xmlns="http://www.w3.org/2000/svg" xmlns:xlink="http://www.w3.org/1999/xlink">
    <!-- Generator: Sketch 56.2 (81672) - https://sketch.com -->
    <title>ic/yizhen</title>
    <desc>Created with Sketch.</desc>
    <g id="草稿" stroke="none" stroke-width="1" fill="none" fill-rule="evenodd">
        <g id="A0-自主申报-功能入口备份-25" transform="translate(-32.000000, -1147.000000)">
            <g id="编组-50" transform="translate(0.000000, 1057.000000)">
                <g id="编组-21">
                    <g id="编组-37" transform="translate(3.000000, 70.000000)">
                        <g id="编组-36" transform="translate(16.000000, 0.000000)">
                            <g id="ic/yizhen" transform="translate(13.000000, 20.000000)">
                                <rect id="矩形" fill="#E5EFFD" x="0" y="0" width="44" height="44" rx="22"></rect>
                                <g id="医学" transform="translate(10.000000, 11.333333)">
                                    <path d="M10.4692139,20.2227158 L7.1041912,17.132632 C6.76367553,16.8018869 1.26583015,10.7356331 1.0288516,10.33137 C0.892400426,10.0967022 0.775056917,9.86191298 0.676147893,9.62521857 C0.139606077,8.34124625 0.145522522,7.00121139 0.586440357,5.32037131 C1.05733784,3.51078403 2.23909722,1.96806887 3.86000512,1.04428651 C6.42379437,-0.449054643 9.72444822,-0.0135645903 12.0018862,2.06804557 C14.2809121,-0.0137971323 17.5804524,-0.448681136 20.1425693,1.04368767 C22.0193438,2.13012659 23.288414,4.02320608 23.580458,6.17200632 C23.8725019,8.32080656 23.1547099,10.483921 21.6349721,12.0328608 L13.5434242,20.2270195 C13.1305791,20.6279408 12.5779054,20.8525021 12.0023734,20.8532375 C11.4205708,20.8539879 10.8627456,20.6215227 10.4692139,20.2227158 Z" id="路径" fill="#62A5F6" opacity="0.868001302"></path>
                                    <path d="M12.8027966,3.17385541 C13.5339494,2.26860513 14.2075896,1.61636296 14.8237173,1.2171289 C15.439845,0.817894831 16.3166174,0.465511511 17.4540346,0.159978937 C16.1061582,0.159978937 15.0481259,0.328874847 14.2799376,0.666666667 C13.5117494,1.00445849 12.7117477,1.47265345 11.8799324,2.07125155 L12.8027966,3.17385541 Z" id="路径-31" fill="#4896F4"></path>
                                    <path d="M10.4692139,20.2227158 L7.1041912,17.132632 C6.76367553,16.8018869 1.26583015,10.7356331 1.0288516,10.33137 C0.892400426,10.0967022 0.775056917,9.86191298 0.676147893,9.62521857 C0.139606077,8.34124625 4.79588389,8.03433669 9.17260689,12.0328608 C12.4068849,14.5891246 19.3597626,13.1493328 22.5244051,8.31426466 C23.1412097,7.44138185 23.8896564,3.71496483 20.1425693,1.04368767 C20.2195945,1.61042344 23.6664704,2.24739662 23.6046104,7.86367021 C23.3143461,9.40544269 22.7538863,10.8924464 21.6349721,12.0328608 L13.5434242,20.2270195 C13.1305791,20.6279408 12.5779054,20.8525021 12.0023734,20.853416 C11.4205708,20.8539879 10.8627456,20.6215227 10.4692139,20.2227158 Z" id="路径" fill="#4896F4" fill-rule="nonzero"></path>
                                    <path d="M7.50772473,12.6204194 C6.98644267,13.1182319 6.16305578,13.108752 5.65337338,12.5990696 C5.14975726,12.0954535 5.14975726,11.2789304 5.65337338,10.7753143 L5.6714402,10.7575985 L9.35839093,7.02710583 C9.80076721,6.59023831 10.5121763,6.59023831 10.9565014,7.02904255 L12.8737964,8.94633751 L16.2514911,5.74569547 C16.7770278,5.25281755 17.5988847,5.26599194 18.1083538,5.77546102 C18.6094867,6.27659398 18.6094867,7.08909104 18.1083538,7.590224 L18.083416,7.61449454 L13.6672496,11.8285143 C13.2248733,12.2653819 12.5134643,12.2653819 12.0691391,11.8265776 L10.1545698,9.91200826 L7.50772473,12.6204194 Z" id="路径" fill="#FFFFFF" fill-rule="nonzero" opacity="0.930000007"></path>
                                </g>
                            </g>
                        </g>
                    </g>
                </g>
            </g>
        </g>
    </g>
</svg>