<?xml version="1.0" encoding="UTF-8"?>
<svg width="54px" height="55px" viewBox="0 0 54 55" version="1.1" xmlns="http://www.w3.org/2000/svg" xmlns:xlink="http://www.w3.org/1999/xlink">
    <title>ic扫场所码</title>
    <g id="页面-2" stroke="none" stroke-width="1" fill="none" fill-rule="evenodd">
        <g id="A0-自主申报-功能入口备份-19" transform="translate(-35.000000, -655.000000)">
            <g id="3常用专区" transform="translate(1.000000, 569.000000)">
                <g id="page3-疫情上报" transform="translate(15.500000, 66.000000)">
                    <g id="card1-申报" transform="translate(0.500000, 0.000000)">
                        <g id="编组-17" transform="translate(2.000000, 0.250000)">
                            <g transform="translate(16.000000, 13.000000)" id="ic扫场所码">
                                <g transform="translate(0.000000, 7.000000)">
                                    <rect id="矩形" fill="#E5EFFD" x="0" y="0" width="54" height="54" rx="27"></rect>
                                    <g id="编组-38" transform="translate(12.886364, 9.818182)" fill-rule="nonzero">
                                        <g id="编组" transform="translate(1.000000, 3.000000)">
                                            <path d="M4.375,5.32762097 L4.375,23.4274194 C4.375,23.4662298 4.40516393,23.4979839 4.44203095,23.4979839 L23.2777271,23.4979839 C23.3145941,23.4979839 23.344758,23.4662298 23.344758,23.4274194 L23.344758,5.32762097 C23.344758,5.28881048 23.3145941,5.25705645 23.2777271,5.25705645 L4.44203095,5.25705645 C4.40516393,5.25705645 4.375,5.28881048 4.375,5.32762097 Z" id="形状" fill="#4293F4"></path>
                                            <path d="M9.73747576,13.0544355 L17.9822822,13.0544355 C18.6659979,13.0544355 19.2223548,13.640121 19.2223548,14.359879 C19.2223548,15.0796371 18.6659979,15.6653226 17.9822822,15.6653226 L9.73747576,15.6653226 C9.0537601,15.6653226 8.49740324,15.0796371 8.49740324,14.359879 C8.49740324,13.640121 9.0537601,13.0544355 9.73747576,13.0544355 Z" id="路径" fill="#FFFFFF"></path>
                                            <path d="M26.8427419,17.7469758 C26.2641129,17.7469758 25.7948589,18.2162298 25.7948589,18.7913306 L25.7948589,24.3941532 C25.7948589,25.124496 25.1668347,25.7525202 24.4329637,25.7525202 L18.7948589,25.7525202 C18.2197581,25.7525202 17.7469758,26.2217742 17.7469758,26.796875 C17.7469758,27.3719758 18.2197581,27.8412298 18.7948589,27.8412298 L25.1103831,27.8412298 C26.6310484,27.8412298 27.8377016,26.6416331 27.8377016,25.1280242 L27.8377016,18.7913306 C27.8377016,18.2162298 27.4178427,17.7469758 26.8427419,17.7469758 Z M25.0715726,0.0352822581 L18.7913306,0.0352822581 C18.2162298,0.0352822581 17.7469758,0.50453629 17.7469758,1.0796371 C17.7469758,1.6547379 18.2162298,2.12399194 18.7913306,2.12399194 L24.3941532,2.12399194 C25.124496,2.12399194 25.7525202,2.75201613 25.7525202,3.48235887 L25.7525202,9.08518145 C25.7525202,9.66028226 26.2217742,10.1295363 26.796875,10.1295363 C27.3719758,10.1295363 27.8412298,9.66028226 27.8412298,9.08518145 L27.8412298,2.7484879 C27.7847782,1.23487903 26.5851815,0.0352822581 25.0715726,0.0352822581 L25.0715726,0.0352822581 Z M1.03024194,10.1260081 C1.60534274,10.1260081 2.078125,9.65675403 2.078125,9.08165323 L2.078125,3.47883065 C2.078125,2.7484879 2.70614919,2.12046371 3.44002016,2.12046371 L9.07459677,2.12046371 C9.65322581,2.12046371 10.1224798,1.65120968 10.1224798,1.07610887 C10.1224798,0.501008065 9.64969758,0.0317540323 9.07459677,0.0317540323 L2.75907258,0.0317540323 C1.23840726,0.0317540323 0.0317540323,1.23135081 0.0317540323,2.74495968 L0.0317540323,9.02520161 C0.0352822581,8.78528226 0.455141129,10.1260081 1.03024194,10.1260081 Z M9.13104839,25.7913306 L3.49647177,25.7913306 C2.76260081,25.7913306 2.13457661,25.1633065 2.13457661,24.4294355 L2.13457661,18.7948589 C2.13457661,18.2162298 1.66179435,17.7469758 1.08669355,17.7469758 C0.508064516,17.7469758 0.0388104839,18.2197581 0.0388104839,18.7948589 L0.0388104839,25.1103831 C0.0388104839,26.6310484 1.24546371,27.8377016 2.76612903,27.8377016 L9.08165323,27.8377016 C9.65675403,27.8377016 10.1295363,27.3649194 10.1295363,26.7898185 C10.1260081,26.2641129 9.70614919,25.7913306 9.13104839,25.7913306 L9.13104839,25.7913306 Z" id="形状" fill="#4293F4"></path>
                                        </g>
                                    </g>
                                </g>
                            </g>
                        </g>
                    </g>
                </g>
            </g>
        </g>
    </g>
</svg>