<?xml version="1.0" encoding="UTF-8"?>
<svg width="23px" height="34px" viewBox="0 0 23 34" version="1.1" xmlns="http://www.w3.org/2000/svg" xmlns:xlink="http://www.w3.org/1999/xlink">
    <title>编组</title>
    <g id="页面-1" stroke="none" stroke-width="1" fill="none" fill-rule="evenodd">
        <g id="首页入口" transform="translate(-80.000000, -1013.000000)" fill="#4293F4" fill-rule="nonzero">
            <g id="编组" transform="translate(80.500000, 1013.000000)">
                <path d="M20.5750769,0 C21.3620402,0 22,0.620927828 22,1.38688112 C22,2.15283441 21.3620402,2.77376224 20.5750769,2.77376224 L19.514,2.77376224 L19.514,25.6260052 C19.515405,30.1131728 15.8819703,33.8036141 11.2758461,33.9934115 L10.912,34 C8.6303145,34 6.44210563,33.1176898 4.82886905,31.5472138 C3.21563246,29.9767378 2.30955109,27.8467752 2.30999998,25.6260052 L2.3083077,2.77376224 L1.42492308,2.77376224 C0.637959794,2.77376224 0,2.15283441 0,1.38688112 C0,0.620927828 0.637959794,0 1.42492308,0 L20.5750769,0 Z M16.9738461,2.79023353 L4.846769,2.79023353 L4.846769,25.6260052 C4.84587969,28.7650538 7.36979915,31.3554916 10.5904615,31.5210735 L10.912,31.5293092 C12.5204436,31.5293092 14.0629849,30.9073032 15.2001676,29.8001716 C16.3373503,28.69304 16.9759874,27.1915073 16.9755387,25.6260052 L16.9755387,2.79023353 L16.9738461,2.79023353 Z M11.9991499,24.3566977 C13.1059192,24.3566977 13.9994576,25.2202861 13.9994576,26.2892504 C13.9994576,27.3582147 13.0991499,28.2218031 11.9991499,28.2218031 C10.894073,28.2218031 10.0005346,27.3531644 10.0005346,26.2892504 C10.0005346,25.2202861 10.89915,24.3566977 11.9991499,24.3566977 Z M8.55275484,18.1165073 C9.60387077,18.1165073 10.4472079,18.9425416 10.4472079,19.9677092 C10.4297935,21.0043089 9.58354938,21.8323311 8.55275484,21.8213697 C7.52101134,21.8336941 6.67327287,21.0052787 6.65585725,19.9677092 C6.65585725,18.9499169 7.50897228,18.1165073 8.55275484,18.1165073 L8.55275484,18.1165073 Z M12.4490685,12.3651903 C13.8002093,12.3612474 14.8976024,13.436665 14.8976024,14.7638042 C14.8976024,16.0896254 13.7989013,17.1597714 12.4490685,17.1597714 C11.0940038,17.1597714 10.0005346,16.0856717 10.0005346,14.7624862 C10.0005346,13.436665 11.0992357,12.3651903 12.4490685,12.3651903 L12.4490685,12.3651903 Z" id="形状"></path>
            </g>
        </g>
    </g>
</svg>