<?xml version="1.0" encoding="UTF-8"?>
<svg width="43px" height="44px" viewBox="0 0 43 44" version="1.1" xmlns="http://www.w3.org/2000/svg" xmlns:xlink="http://www.w3.org/1999/xlink">
    <title>编组</title>
    <g id="页面-1" stroke="none" stroke-width="1" fill="none" fill-rule="evenodd">
        <g id="首页入口" transform="translate(-433.000000, -1006.000000)" fill="#4293F4" fill-rule="nonzero" stroke="#4293F4" stroke-width="0.5">
            <g id="编组" transform="translate(454.553271, 1027.831458) rotate(-41.000000) translate(-454.553271, -1027.831458) translate(440.346044, 1012.269575)">
                <path d="M28.1090806,8.06537986 L19.1098868,0.252000953 C18.9058617,0.0733817559 18.6388552,-0.0164429758 18.3681901,0.00248377143 C18.097525,0.0214105187 17.8456182,0.147521201 17.6684377,0.352796893 C17.3091067,0.7741069 17.3532287,1.40508106 17.7676977,1.77228169 L21.4601149,4.9782595 L18.9310635,7.90607188 L15.2386464,4.70009407 L12.2426905,2.11787281 C11.8138923,1.75705069 11.1756498,1.80168096 10.8012414,2.21866875 C10.439931,2.64702906 10.4845091,3.28452503 10.9019194,3.65843188 L13.0739295,5.54430119 L2.01351914,18.3404516 C-0.202330845,20.8887204 -0.147144782,24.6929881 2.14168102,27.1753291 L0.260361082,29.4465224 C0.0769519953,29.6442395 -0.0164242696,29.9089129 0.00237642132,30.1777753 C0.0211771123,30.4466377 0.150480057,30.6957398 0.359621129,30.8660072 C0.556683389,31.050171 0.822480179,31.1425977 1.0914696,31.1205653 C1.36090755,31.1049472 1.61125431,30.9764282 1.78076812,30.7666309 L3.6691781,28.5968294 C6.4507693,30.536972 10.2513293,30.0599318 12.4665597,27.4925963 L23.5892943,14.7124653 L25.7613044,16.5983346 C25.9702087,16.7732489 26.2406571,16.8571109 26.512032,16.8311237 C26.7775804,16.81637 27.0262442,16.6962773 27.2027535,16.4975386 C27.5640639,16.0691783 27.5194858,15.4316823 27.1020755,15.0577755 L24.1438878,12.4321582 L20.4514706,9.22618039 L23.002242,6.31722668 L26.7003312,9.60431791 C27.1255626,9.95239618 27.7488283,9.9088132 28.1214782,9.50494163 C28.3265208,9.29718742 28.4323277,9.01146615 28.4119794,8.72047118 C28.3945379,8.47104692 28.2858522,8.23835883 28.1090806,8.06537986 Z M10.9187605,26.0725157 C9.19419472,27.9424273 6.30890389,28.1441865 4.34088005,26.5324859 L3.99335843,26.2307468 C2.05976519,24.5386341 1.85464714,21.6053093 3.53392621,19.66056 L9.50413769,12.8445439 L16.8686699,19.2579192 L10.9187605,26.0725157 Z M22.0226111,13.3140827 L18.2457911,17.6536857 L10.8449087,11.3039849 L14.6217287,6.9643818 L17.5888745,9.42635262 L15.7004645,11.5961541 C15.3391541,12.0245144 15.3837322,12.6620104 15.8011426,13.0359173 C16.0140758,13.203318 16.2814368,13.2862226 16.5518702,13.2687064 C16.8157638,13.2477094 17.0622121,13.1286868 17.2425917,12.9351213 L19.1310016,10.7653198 L22.0226111,13.3140827 Z" id="形状"></path>
            </g>
        </g>
    </g>
</svg>