<?xml version="1.0" encoding="UTF-8"?>
<svg width="96px" height="96px" viewBox="0 0 96 96" version="1.1" xmlns="http://www.w3.org/2000/svg" xmlns:xlink="http://www.w3.org/1999/xlink">
    <!-- Generator: Sketch 63.1 (92452) - https://sketch.com -->
    <title>编组 9</title>
    <desc>Created with Sketch.</desc>
    <g id="页面-1" stroke="none" stroke-width="1" fill="none" fill-rule="evenodd">
        <g id="画板" transform="translate(-281.000000, -213.000000)">
            <g id="编组-9" transform="translate(281.000000, 213.000000)">
                <circle id="椭圆形" fill="#E5EFFD" cx="48" cy="48" r="48"></circle>
                <g id="编组-11" transform="translate(24.000000, 22.000000)">
                    <g id="编组-33" fill="#4293F4">
                        <ellipse id="椭圆形" cx="32.1259065" cy="3.5" rx="3" ry="3.5"></ellipse>
                        <circle id="椭圆形" cx="25.1259065" cy="7" r="2"></circle>
                        <rect id="矩形" x="13.1259065" y="13" width="17" height="16"></rect>
                        <path d="M13.7369115,26.0250025 L29.3431874,26 L42.854758,44.8341789 C43.4986233,45.7316817 43.2930094,46.9812074 42.3955065,47.6250726 C42.0556626,47.8688754 41.6479361,48 41.2296854,48 L2,48 C0.8954305,48 3.87467836e-13,47.1045695 3.87245791e-13,46 C3.87245791e-13,45.584915 0.129149345,45.1801138 0.369540783,44.8417242 L13.7369115,26.0250025 L13.7369115,26.0250025 Z" id="形状结合"></path>
                        <rect id="矩形" x="10.1259065" y="10" width="24" height="4" rx="1.5"></rect>
                    </g>
                    <g id="编组-8" transform="translate(29.000000, 30.000000)">
                        <circle id="椭圆形" stroke="#E5EFFD" stroke-width="3" fill="#4293F4" cx="10" cy="10" r="11.5"></circle>
                        <path d="M10,3 C10.5522847,3 11,3.44771525 11,4 L11,10.237 L15.0986219,11.3357276 C15.632088,11.4786694 15.9486704,12.0270064 15.8057286,12.5604725 C15.6627868,13.0939386 15.1144499,13.4105211 14.5809838,13.2675792 L9.75135463,11.973484 C9.65212359,11.9468951 9.56039681,11.9062794 9.47773595,11.8543417 C9.47070593,11.8486443 9.46310991,11.843849 9.45558384,11.8389552 C9.44004662,11.8296484 9.42526074,11.81919 9.41080549,11.8083638 C9.39237212,11.7946137 9.37441394,11.7805326 9.3569642,11.7658661 C9.35355836,11.7621025 9.34951676,11.7585609 9.3455062,11.7549888 C9.13355286,11.5720867 9,11.3016398 9,11 L9,4 C9,3.44771525 9.44771525,3 10,3 Z" id="形状结合" fill="#FFFFFF"></path>
                    </g>
                </g>
            </g>
        </g>
    </g>
</svg>