<?xml version="1.0" encoding="UTF-8"?>
<svg width="44px" height="44px" viewBox="0 0 44 44" version="1.1" xmlns="http://www.w3.org/2000/svg" xmlns:xlink="http://www.w3.org/1999/xlink">
    <!-- Generator: Sketch 56.2 (81672) - https://sketch.com -->
    <title>ic/menzhen</title>
    <desc>Created with Sketch.</desc>
    <g id="草稿" stroke="none" stroke-width="1" fill="none" fill-rule="evenodd">
        <g id="A0-自主申报-功能入口备份-25" transform="translate(-32.000000, -1232.000000)">
            <g id="编组-50" transform="translate(0.000000, 1057.000000)">
                <g id="编组-21">
                    <g id="编组-37" transform="translate(3.000000, 70.000000)">
                        <g id="编组-36备份" transform="translate(17.000000, 85.000000)">
                            <g id="ic/menzhen" transform="translate(12.000000, 20.000000)">
                                <rect id="矩形" fill="#E5EFFD" x="0" y="0" width="44" height="44" rx="22"></rect>
                                <g id="编组-41" transform="translate(6.500000, 6.500000)">
                                    <path d="M9.16666667,5.16666667 L21.9628461,5.16666667 C24.1719851,5.16666667 25.9628461,6.95752767 25.9628461,9.16666667 L25.9628461,21.9628461 C25.9628461,24.1719851 24.1719851,25.9628461 21.9628461,25.9628461 L9.16666667,25.9628461 C6.95752767,25.9628461 5.16666667,24.1719851 5.16666667,21.9628461 L5.16666667,9.16666667 C5.16666667,6.95752767 6.95752767,5.16666667 9.16666667,5.16666667 Z" id="矩形" fill="#62A5F6" opacity="0.868001302" transform="translate(15.564756, 15.564756) rotate(-315.000000) translate(-15.564756, -15.564756) "></path>
                                    <path d="M14.5120082,0.841409511 L15.5209845,0.841409511 C13.5336067,0.828194728 12.1760911,2.18574244 11.4484379,4.91405265 C11.4175212,9.03604508 11.1316223,11.7814602 10.5907414,13.150298 L10.5121886,4.87939778 C10.4912082,2.6703584 12.2649806,0.862570243 14.4740199,0.841589904 C14.4866823,0.841469643 14.4993452,0.841409511 14.5120082,0.841409511 Z" id="矩形" fill="#93A0F8" opacity="0" transform="translate(12.997411, 6.995854) rotate(-315.000000) translate(-12.997411, -6.995854) "></path>
                                    <path d="M19.7320535,23.2114124 C23.3905154,29.1890307 23.86733,34.3080102 23.3905154,34.7319874 C23.3905154,34.7319874 23.3905154,34.7319874 23.3905154,34.7319874 C22.1451862,35.8393178 20.2537405,35.7883659 19.0698549,34.6155743 L9.48521385,25.1211074 C7.91575122,23.5664106 7.90378116,21.033779 9.45847797,19.4643164 C9.4637342,19.4590102 9.46900529,19.4537188 9.47429116,19.4484422 L18.7189285,10.2199745 C19.974319,8.96677988 21.9537591,8.81024919 23.3905154,9.85055355 L23.3905154,9.85055355 C18.8095489,12.4873565 17.5900615,16.9409761 19.7320535,23.2114124 Z" id="路径-32" fill="#4896F4" fill-rule="nonzero" transform="translate(15.085926, 21.811437) rotate(-90.000000) translate(-15.085926, -21.811437) "></path>
                                    <path d="M14.2730897,14.2730897 L14.2730897,11.2734292 C14.2730897,10.5600614 14.8513886,9.98176251 15.5647564,9.98176251 C16.2781242,9.98176251 16.856423,10.5600614 16.856423,11.2734292 L16.856423,14.2730897 L19.8560836,14.2730897 C20.5694514,14.2730897 21.1477502,14.8513886 21.1477502,15.5647564 C21.1477502,16.2781242 20.5694514,16.856423 19.8560836,16.856423 L16.856423,16.856423 L16.856423,19.8560836 C16.856423,20.5694514 16.2781242,21.1477502 15.5647564,21.1477502 C14.8513886,21.1477502 14.2730897,20.5694514 14.2730897,19.8560836 L14.2730897,16.856423 L11.2734292,16.856423 C10.5600614,16.856423 9.98176251,16.2781242 9.98176251,15.5647564 C9.98176251,14.8513886 10.5600614,14.2730897 11.2734292,14.2730897 L14.2730897,14.2730897 Z" id="形状结合" fill="#FFFFFF" fill-rule="nonzero" opacity="0.930000007"></path>
                                </g>
                            </g>
                        </g>
                    </g>
                </g>
            </g>
        </g>
    </g>
</svg>