<?xml version="1.0" encoding="UTF-8"?>
<svg width="32px" height="32px" viewBox="0 0 32 32" version="1.1" xmlns="http://www.w3.org/2000/svg" xmlns:xlink="http://www.w3.org/1999/xlink">
    <title>针</title>
    <g id="设计稿" stroke="none" stroke-width="1" fill="none" fill-rule="evenodd">
        <g id="针">
            <path d="M0,16 C-1.082166e-15,7.163444 7.163444,1.623249e-15 16,0 C24.836556,-1.623249e-15 32,7.163444 32,16 C32,24.836556 24.836556,32 16,32 C7.163444,32 1.082166e-15,24.836556 0,16 Z" id="矩形" fill="#CEA350"></path>
            <g id="针管" transform="translate(6.000000, 6.000000)" fill="#FFFFFF" fill-rule="nonzero">
                <path d="M17.378769,4.96539203 L19.861465,7.44804679 L21.1028233,6.20668847 L14.8960523,0 L13.6547765,1.24135832 L16.1374107,3.72405433 L14.482335,5.37913001 L10.1375912,1.03448933 L8.89623285,2.27584765 L9.72385319,3.10338549 L4.49829711,8.32887969 L2.74277757,10.0843992 L2.74277757,17.1531106 L1.69972885,18.1961593 L0.017221895,19.8786663 L1.25855959,21.1200246 L2.97557221,19.403012 L4.01862093,18.3599632 L4.49829711,18.3599632 L8.53572806,18.3600045 L11.0184241,18.3600045 L12.7739436,16.6044437 L17.9994378,11.3789495 L18.8269757,12.2065286 L20.068334,10.9652115 L15.7236108,6.62048833 L17.378769,4.96539203 Z M16.7580795,10.1376324 L10.2912476,16.6044437 L4.49831773,16.6044437 L4.49831773,10.8115551 L5.79295049,9.51694295 L8.49973739,12.2237711 L9.74109571,10.9824128 L7.03428819,8.2756465 L8.2756465,7.03428819 L10.9823509,9.74107509 L12.2237092,8.49971677 L9.51692232,5.79295049 L10.9652115,4.34472318 L16.7580795,10.1376324 L16.7580795,10.1376324 Z" id="形状"></path>
            </g>
        </g>
    </g>
</svg>